squats_1_grf
version=1
nRows=37
nColumns=19
inDegrees=no
endheader
time	ground_force_left_vx	ground_force_left_vy	ground_force_left_vz	ground_force_left_px	ground_force_left_py	ground_force_left_pz	ground_force_left_mx	ground_force_left_my	ground_force_left_mz	ground_force_right_vx	ground_force_right_vy	ground_force_right_vz	ground_force_right_px	ground_force_right_py	ground_force_right_pz	ground_force_right_mx	ground_force_right_my	ground_force_right_mz
     24.49000000	     14.58635975	    537.87745567	    118.79557343	     -2.31268312	      0.00979985	      2.16752865	     -0.00266306	      1.35820993	     -0.00339636	     -9.76275113	    457.28746262	    -99.29415606	     -2.28883640	      0.01029045	      2.75748426	      0.00000549	     -0.00445142	     -0.00001330
     24.49100000	     14.75093054	    537.77471724	    118.77723625	     -2.31281295	      0.00979959	      2.16752927	     -0.00267089	      1.36220248	     -0.00340635	     -9.83905854	    457.88741249	    -99.44310108	     -2.28895802	      0.01029040	      2.75745006	     -0.00000086	      0.00069478	      0.00000208
     24.49200000	     14.92387201	    537.65620147	    118.75754282	     -2.31294674	      0.00979933	      2.16752968	     -0.00267871	      1.36619257	     -0.00341632	     -9.90879456	    458.53047162	    -99.60318044	     -2.28908747	      0.01029034	      2.75741512	     -0.00000774	      0.00627057	      0.00001874
     24.49300000	     15.10480409	    537.52120311	    118.73669677	     -2.31308406	      0.00979906	      2.16752988	     -0.00268652	      1.37017177	     -0.00342628	     -9.97079825	    459.21658530	    -99.77454608	     -2.28922465	      0.01029028	      2.75737964	     -0.00001513	      0.01226103	      0.00003664
     24.49400000	     15.29329740	    537.36910721	    118.71494352	     -2.31322443	      0.00979879	      2.16752985	     -0.00269429	      1.37413527	     -0.00343619	    -10.02392709	    459.94544357	    -99.95730016	     -2.28936941	      0.01029021	      2.75734383	     -0.00002301	      0.01864756	      0.00005572
     24.49500000	     15.48887825	    537.19939902	    118.69257061	     -2.31336736	      0.00979851	      2.16752955	     -0.00270203	      1.37808223	     -0.00344606	    -10.06707031	    460.71647326	   -100.15149160	     -2.28952158	      0.01029013	      2.75730788	     -0.00003136	      0.02540806	      0.00007592
     24.49600000	     15.69103441	    537.01167276	    118.66990717	     -2.31351237	      0.00979822	      2.16752897	     -0.00270974	      1.38201609	     -0.00345589	    -10.09916201	    461.52883203	   -100.35711281	     -2.28968091	      0.01029004	      2.75727202	     -0.00004013	      0.03251711	      0.00009717
     24.49700000	     15.89922138	    536.80563885	    118.64732273	     -2.31365898	      0.00979793	      2.16752807	     -0.00271744	      1.38594474	     -0.00346572	    -10.11919371	    462.38140445	   -100.57409672	     -2.28984714	      0.01028994	      2.75723646	     -0.00004930	      0.03994623	      0.00011936
     24.49800000	     16.11286930	    536.58112958	    118.62522520	     -2.31380668	      0.00979764	      2.16752683	     -0.00272516	      1.38988060	     -0.00347556	    -10.12622622	    463.27280028	   -100.80231404	     -2.29001996	      0.01028983	      2.75720142	     -0.00005883	      0.04766411	      0.00014243
     24.49900000	     16.33139029	    536.33810295	    118.60405810	     -2.31395500	      0.00979734	      2.16752520	     -0.00273292	      1.39384056	     -0.00348546	    -10.11940066	    464.20135505	   -101.04157091	     -2.29019901	      0.01028971	      2.75716709	     -0.00006867	      0.05563683	      0.00016625
     24.50000000	     16.55418609	    536.07664461	    118.58429698	     -2.31410348	      0.00979705	      2.16752315	     -0.00274078	      1.39784581	     -0.00349548	    -10.09794828	    465.16513309	   -101.29160695	     -2.29038392	      0.01028959	      2.75713368	     -0.00007878	      0.06382820	      0.00019073
     24.50100000	     16.78065600	    535.79696784	    118.56644506	     -2.31425165	      0.00979675	      2.16752064	     -0.00274877	      1.40192155	     -0.00350567	    -10.06119921	    466.16193288	   -101.55209370	     -2.29057424	      0.01028945	      2.75710139	     -0.00008911	      0.07220002	      0.00021574
     24.50200000	     17.01020486	    535.49941149	    118.55102813	     -2.31439910	      0.00979645	      2.16751762	     -0.00275695	      1.40609663	     -0.00351611	    -10.00858974	    467.18929487	   -101.82263362	     -2.29076954	      0.01028930	      2.75707040	     -0.00009961	      0.08071244	      0.00024118
     24.50300000	     17.24225095	    535.18443607	    118.53858872	     -2.31454541	      0.00979616	      2.16751404	     -0.00276540	      1.41040306	     -0.00352688	     -9.93966832	    468.24451159	   -102.10275954	     -2.29096932	      0.01028914	      2.75704087	     -0.00011024	      0.08932439	      0.00026691
     24.50400000	     17.47623371	    534.85261786	    118.52967964	     -2.31469021	      0.00979586	      2.16750985	     -0.00277417	      1.41487545	     -0.00353806	     -9.85410002	    469.32464004	   -102.39193467	     -2.29117307	      0.01028897	      2.75701296	     -0.00012094	      0.09799393	      0.00029282
     24.50500000	     17.71162096	    534.50464132	    118.52485691	     -2.31483315	      0.00979557	      2.16750499	     -0.00278333	      1.41955038	     -0.00354975	     -9.75166957	    470.42651626	   -102.68955317	     -2.29138025	      0.01028880	      2.75698681	     -0.00013166	      0.10667874	      0.00031877
     24.50600000	     17.94791566	    534.14128983	    118.52467226	     -2.31497391	      0.00979528	      2.16749941	     -0.00279297	      1.42446573	     -0.00356204	     -9.63228294	    471.54677196	   -102.99494121	     -2.29159029	      0.01028861	      2.75696253	     -0.00014235	      0.11533663	      0.00034464
     24.50700000	     18.18466183	    533.76343498	    118.52966521	     -2.31511221	      0.00979500	      2.16749306	     -0.00280316	      1.42965998	     -0.00357503	     -9.49596755	    472.68185303	   -103.30735870	     -2.29180260	      0.01028841	      2.75694025	     -0.00015295	      0.12392603	      0.00037031
     24.50800000	     18.42144973	    533.37202453	    118.54035495	     -2.31524781	      0.00979471	      2.16748587	     -0.00281396	      1.43517144	     -0.00358881	     -9.34287112	    473.82803985	   -103.62600145	     -2.29201658	      0.01028821	      2.75692002	     -0.00016341	      0.13240650	      0.00039565
     24.50900000	     18.65792005	    532.96806942	    118.55723209	     -2.31538049	      0.00979443	      2.16747780	     -0.00282546	      1.44103754	     -0.00360348	     -9.17325929	    474.98146935	   -103.95000401	     -2.29223162	      0.01028800	      2.75690192	     -0.00017370	      0.14073926	      0.00042055
     24.51000000	     18.89376706	    532.55262976	    118.58075040	     -2.31551008	      0.00979415	      2.16746878	     -0.00283773	      1.44729406	     -0.00361913	     -8.98751215	    476.13815840	   -104.27844290	     -2.29244708	      0.01028778	      2.75688600	     -0.00018375	      0.14888770	      0.00044490
     24.51100000	     19.12874070	    532.12680034	    118.61131874	     -2.31563644	      0.00979388	      2.16745876	     -0.00285083	      1.45397440	     -0.00363583	     -8.78611973	    477.29402879	   -104.61034053	     -2.29266233	      0.01028756	      2.75687226	     -0.00019354	      0.15681787	      0.00046859
     24.51200000	     19.36264754	    531.69169566	    118.64929330	     -2.31575947	      0.00979361	      2.16744770	     -0.00286482	      1.46110895	     -0.00365367	     -8.56967673	    478.44493321	   -104.94466950	     -2.29287671	      0.01028732	      2.75686073	     -0.00020302	      0.16449889	      0.00049154
     24.51300000	     19.59535058	    531.24843489	    118.69497028	     -2.31587909	      0.00979335	      2.16743554	     -0.00287975	      1.46872445	     -0.00367272	     -8.33887645	    479.58668238	   -105.28035740	     -2.29308958	      0.01028709	      2.75685137	     -0.00021216	      0.17190345	      0.00051367
     24.51400000	     19.82676794	    530.79812685	    118.74857921	     -2.31599527	      0.00979309	      2.16742225	     -0.00289567	      1.47684347	     -0.00369302	     -8.09450421	    480.71507307	   -105.61629214	     -2.29330030	      0.01028685	      2.75684415	     -0.00022093	      0.17900814	      0.00053490
     24.51500000	     20.05687051	    530.34185530	    118.81027697	     -2.31610800	      0.00979283	      2.16740780	     -0.00291261	      1.48548395	     -0.00371463	     -7.83743028	    481.82591682	   -105.95132756	     -2.29350822	      0.01028661	      2.75683901	     -0.00022930	      0.18579377	      0.00055518
     24.51600000	     20.28567840	    529.88066478	    118.88014272	     -2.31621729	      0.00979258	      2.16739214	     -0.00293060	      1.49465887	     -0.00373757	     -7.56860255	    482.91506918	   -106.28428961	     -2.29371271	      0.01028637	      2.75683590	     -0.00023727	      0.19224571	      0.00057446
     24.51700000	     20.51325658	    529.41554698	    118.95817373	     -2.31632321	      0.00979233	      2.16737527	     -0.00294965	      1.50437603	     -0.00376187	     -7.28903890	    483.97845938	   -106.61398280	     -2.29391313	      0.01028612	      2.75683471	     -0.00024480	      0.19835406	      0.00059271
     24.51800000	     20.73970951	    528.94742800	    119.04428229	     -2.31642580	      0.00979208	      2.16735717	     -0.00296977	      1.51463791	     -0.00378753	     -6.99981945	    485.01212025	   -106.93919701	     -2.29410889	      0.01028588	      2.75683534	     -0.00025191	      0.20411388	      0.00060992
     24.51900000	     20.96517496	    528.47715640	    119.13829365	     -2.31652517	      0.00979184	      2.16733784	     -0.00299096	      1.52544164	     -0.00381455	     -6.70207873	    486.01221815	   -107.25871468	     -2.29429939	      0.01028564	      2.75683769	     -0.00025859	      0.20952525	      0.00062609
     24.52000000	     21.18981726	    528.00549223	    119.23994516	     -2.31662142	      0.00979160	      2.16731727	     -0.00301319	      1.53677911	     -0.00384290	     -6.39699779	    486.97508278	   -107.57131830	     -2.29448406	      0.01028540	      2.75684163	     -0.00026485	      0.21459329	      0.00064123
     24.52100000	     21.41381998	    527.53309701	    119.34888647	     -2.31671466	      0.00979136	      2.16729550	     -0.00303644	      1.54863709	     -0.00387255	     -6.08579630	    487.89723663	   -107.87579806	     -2.29466235	      0.01028516	      2.75684701	     -0.00027069	      0.21932815	      0.00065538
     24.52200000	     21.63737833	    527.06052459	    119.46468098	     -2.31680501	      0.00979112	      2.16727253	     -0.00306067	      1.56099746	     -0.00390346	     -5.76972472	    488.77542401	   -108.17095993	     -2.29483373	      0.01028493	      2.75685371	     -0.00027614	      0.22374486	      0.00066858
     24.52300000	     21.86069140	    526.58821302	    119.58680840	     -2.31689261	      0.00979089	      2.16724841	     -0.00308585	      1.57383753	     -0.00393557	     -5.45005639	    489.60663927	   -108.45563382	     -2.29499772	      0.01028470	      2.75686156	     -0.00028122	      0.22786306	      0.00068088
     24.52400000	     22.08395450	    526.11647700	    119.71466839	     -2.31697758	      0.00979066	      2.16722320	     -0.00311191	      1.58713036	     -0.00396881	     -5.12807972	    490.38815411	   -108.72868196	     -2.29515386	      0.01028449	      2.75687041	     -0.00028597	      0.23170676	      0.00069237
     24.52500000	     22.30735175	    525.64550127	    119.84758518	     -2.31706006	      0.00979044	      2.16719693	     -0.00313880	      1.60084513	     -0.00400310	     -4.80509022	    491.11754377	   -108.98900748	     -2.29530172	      0.01028427	      2.75688012	     -0.00029041	      0.23530396	      0.00070312
     24.52600000	     22.53104904	    525.17533447	    119.98481299	     -2.31714018	      0.00979021	      2.16716969	     -0.00316645	      1.61494766	     -0.00403837	     -4.48238261	    491.79271169	   -109.23556302	     -2.29544091	      0.01028407	      2.75689051	     -0.00029458	      0.23868614	      0.00071323
